<svg width="9" height="13" viewBox="0 0 9 13" fill="none" xmlns="http://www.w3.org/2000/svg">
<path d="M5.49894 11.0591C5.49875 11.3497 5.41925 11.6338 5.27048 11.8754C5.12172 12.117 4.91036 12.3052 4.66313 12.4164C4.41591 12.5275 4.1439 12.5565 3.88149 12.4998C3.61909 12.443 3.37806 12.303 3.18886 12.0975C2.99967 11.892 2.87081 11.6301 2.81856 11.3451C2.76632 11.06 2.79303 10.7645 2.89533 10.4959C2.99763 10.2274 3.17092 9.99777 3.3933 9.83615C3.61569 9.67454 3.87719 9.58817 4.14474 9.58796C4.32272 9.58741 4.49904 9.62509 4.66356 9.69883C4.82809 9.77257 4.97757 9.8809 5.10342 10.0176C5.22927 10.1543 5.329 10.3167 5.39688 10.4955C5.46476 10.6742 5.49944 10.8657 5.49894 11.0591Z" fill="#FF7600"/>
<path d="M7.95159 3.64328C7.95415 4.12405 7.86299 4.59996 7.68411 5.03972C7.60664 5.22901 7.51376 5.4104 7.40656 5.58172C7.18446 5.93052 6.91796 6.24334 6.61502 6.51086C6.56302 6.55823 6.50601 6.60742 6.42969 6.67118C6.33411 6.74861 6.22761 6.82968 6.1052 6.91713C5.88904 7.06901 5.68102 7.23416 5.48217 7.41176C5.36425 7.51162 5.26202 7.6316 5.17948 7.76702C5.07634 7.96287 5.02435 8.34181 5.02435 8.89383V8.98492H2.76374V8.55861C2.76374 8.22521 2.77129 7.94465 2.78553 7.70053C2.7958 7.4793 2.81707 7.25884 2.84926 7.04011C2.87139 6.84772 2.92476 6.66113 3.00689 6.489C3.15531 6.22027 3.51335 5.855 4.10031 5.37221C4.12546 5.35217 4.15063 5.33121 4.17663 5.31026C4.20094 5.29204 4.22441 5.27291 4.24873 5.25287C4.45206 5.09597 4.63929 4.91579 4.80719 4.71543C4.85624 4.65303 4.90161 4.58731 4.94301 4.51867L4.95393 4.50045C5.08536 4.24751 5.14979 3.95997 5.14007 3.66969C5.14071 3.59625 5.13623 3.52287 5.12666 3.45016C5.10058 3.16657 4.97941 2.90331 4.78622 2.71049C4.5766 2.50176 4.30635 2.37929 4.02233 2.36433C3.98628 2.36069 3.95275 2.35978 3.91836 2.35978C3.78473 2.35897 3.65151 2.37611 3.52175 2.41079C3.27851 2.47598 3.06028 2.62256 2.8979 2.82982C2.81184 2.94018 2.73862 3.06164 2.67988 3.19145C2.48178 3.68792 2.35509 4.2145 2.30423 4.75277L2.29583 4.84842L0.167709 4.23264V3.21332C0.177782 3.17232 0.188672 3.13133 0.200423 3.09125C0.336277 2.58004 0.552744 2.0983 0.840195 1.66748C0.963057 1.48466 1.10146 1.31479 1.25357 1.16009C1.28962 1.12093 1.32905 1.08267 1.36846 1.04532C1.62452 0.803816 1.90903 0.600411 2.2145 0.440467L2.24134 0.426803C2.81995 0.136289 3.45122 -0.00939821 4.08857 0.000486658C4.15482 0.000486658 4.2328 0.00139736 4.30993 0.00595197C4.9433 0.0233958 5.56493 0.195568 6.12867 0.509692C6.38182 0.652056 6.61901 0.825671 6.83553 1.0271C7.44306 1.56508 7.83425 2.33859 7.92643 3.18416C7.94324 3.33652 7.95164 3.48983 7.95159 3.64328Z" fill="#FF7600"/>
<path opacity="0.3" d="M6.43472 11.0591C6.43453 11.3497 6.35502 11.6338 6.20626 11.8754C6.05749 12.117 5.84613 12.3052 5.59891 12.4164C5.35168 12.5275 5.07967 12.5565 4.81726 12.4998C4.55485 12.443 4.31382 12.303 4.12463 12.0975C3.93543 11.892 3.80657 11.6301 3.75432 11.3451C3.70208 11.06 3.72879 10.7645 3.83109 10.4959C3.93339 10.2274 4.10668 9.99777 4.32907 9.83615C4.55145 9.67454 4.81295 9.58817 5.08051 9.58796C5.25849 9.58741 5.43481 9.62509 5.59934 9.69883C5.76386 9.77257 5.91335 9.8809 6.03919 10.0176C6.16504 10.1543 6.26477 10.3167 6.33265 10.4955C6.40053 10.6742 6.43522 10.8657 6.43472 11.0591Z" fill="black"/>
<path opacity="0.3" d="M8.88735 3.64328C8.88991 4.12405 8.79875 4.59996 8.61987 5.03972C8.5424 5.22901 8.44952 5.4104 8.34232 5.58172C8.12022 5.93052 7.85372 6.24334 7.55078 6.51086C7.49878 6.55823 7.44177 6.60742 7.36545 6.67118C7.26987 6.74861 7.16337 6.82968 7.04096 6.91713C6.8248 7.06901 6.61678 7.23416 6.41793 7.41176C6.30001 7.51162 6.19779 7.6316 6.11524 7.76702C6.0121 7.96287 5.96011 8.34181 5.96011 8.89383V8.98492H3.6995V8.55861C3.6995 8.22521 3.70705 7.94465 3.72129 7.70053C3.73156 7.4793 3.75283 7.25884 3.78502 7.04011C3.80715 6.84772 3.86052 6.66113 3.94265 6.489C4.09107 6.22027 4.44911 5.855 5.03607 5.37221C5.06123 5.35217 5.08639 5.33121 5.11239 5.31026C5.1367 5.29204 5.16017 5.27291 5.18449 5.25287C5.38782 5.09597 5.57505 4.91579 5.74295 4.71543C5.792 4.65303 5.83737 4.58731 5.87877 4.51867L5.88969 4.50045C6.02112 4.24751 6.08555 3.95997 6.07583 3.66969C6.07647 3.59625 6.07199 3.52287 6.06242 3.45016C6.03634 3.16657 5.91517 2.90331 5.72198 2.71049C5.51236 2.50176 5.24212 2.37929 4.95809 2.36433C4.92204 2.36069 4.88851 2.35978 4.85412 2.35978C4.72049 2.35897 4.58727 2.37611 4.45751 2.41079C4.21427 2.47598 3.99604 2.62256 3.83366 2.82982C3.7476 2.94018 3.67438 3.06164 3.61564 3.19145C3.41754 3.68792 3.29085 4.2145 3.23999 4.75277L3.23159 4.84842L1.10347 4.23264V3.21332C1.11354 3.17232 1.12443 3.13133 1.13618 3.09125C1.27204 2.58004 1.4885 2.0983 1.77596 1.66748C1.89882 1.48466 2.03722 1.31479 2.18933 1.16009C2.22538 1.12093 2.26481 1.08267 2.30422 1.04532C2.56028 0.803816 2.84479 0.600411 3.15026 0.440467L3.1771 0.426803C3.75571 0.136289 4.38698 -0.00939821 5.02433 0.000486658C5.09058 0.000486658 5.16856 0.00139736 5.24569 0.00595197C5.87906 0.0233958 6.50069 0.195568 7.06443 0.509692C7.31758 0.652056 7.55477 0.825671 7.77129 1.0271C8.37882 1.56508 8.77001 2.33859 8.86219 3.18416C8.879 3.33652 8.8874 3.48983 8.88735 3.64328Z" fill="black"/>
<path d="M5.51235 11.0591C5.51216 11.3497 5.43266 11.6338 5.28389 11.8754C5.13513 12.117 4.92377 12.3052 4.67654 12.4164C4.42931 12.5275 4.15731 12.5565 3.8949 12.4998C3.63249 12.443 3.39146 12.303 3.20226 12.0975C3.01307 11.892 2.88421 11.6301 2.83196 11.3451C2.77971 11.06 2.80643 10.7645 2.90873 10.4959C3.01103 10.2274 3.18432 9.99777 3.40671 9.83615C3.62909 9.67454 3.89059 9.58817 4.15815 9.58796C4.33613 9.58741 4.51245 9.62509 4.67697 9.69883C4.8415 9.77257 4.99098 9.8809 5.11683 10.0176C5.24268 10.1543 5.34241 10.3167 5.41029 10.4955C5.47817 10.6742 5.51285 10.8657 5.51235 11.0591Z" fill="#FF7600"/>
<path d="M7.965 3.64328C7.96756 4.12405 7.8764 4.59996 7.69753 5.03972C7.62005 5.22901 7.52717 5.4104 7.41997 5.58172C7.19787 5.93052 6.93137 6.24334 6.62843 6.51086C6.57643 6.55823 6.51942 6.60742 6.4431 6.67118C6.34752 6.74861 6.24102 6.82968 6.11861 6.91713C5.90245 7.06901 5.69443 7.23416 5.49558 7.41176C5.37766 7.51162 5.27543 7.6316 5.19289 7.76702C5.08975 7.96287 5.03776 8.34181 5.03776 8.89383V8.98492H2.77714V8.55861C2.77714 8.22521 2.78469 7.94465 2.79894 7.70053C2.8092 7.4793 2.83048 7.25884 2.86267 7.04011C2.8848 6.84772 2.93817 6.66113 3.0203 6.489C3.16871 6.22027 3.52676 5.855 4.11372 5.37221C4.13887 5.35217 4.16403 5.33121 4.19003 5.31026C4.21435 5.29204 4.23781 5.27291 4.26213 5.25287C4.46547 5.09597 4.6527 4.91579 4.82059 4.71543C4.86965 4.65303 4.91502 4.58731 4.95642 4.51867L4.96733 4.50045C5.09877 4.24751 5.1632 3.95997 5.15348 3.66969C5.15412 3.59625 5.14963 3.52287 5.14007 3.45016C5.11399 3.16657 4.99282 2.90331 4.79963 2.71049C4.59001 2.50176 4.31976 2.37929 4.03574 2.36433C3.99969 2.36069 3.96616 2.35978 3.93177 2.35978C3.79813 2.35897 3.66492 2.37611 3.53515 2.41079C3.29192 2.47598 3.07369 2.62256 2.91131 2.82982C2.82525 2.94018 2.75202 3.06164 2.69329 3.19145C2.54235 3.51848 2.44425 3.95207 2.40148 4.4795L2.39309 4.57515L0 4.2044L0.0117301 4.11422C0.0537782 3.7679 0.12136 3.42581 0.213824 3.09125C0.349678 2.58004 0.566146 2.0983 0.853597 1.66748C0.976459 1.48466 1.11486 1.31479 1.26698 1.16009C1.30303 1.12093 1.34245 1.08267 1.38186 1.04532C1.63792 0.803816 1.92244 0.600411 2.2279 0.440467L2.25474 0.426803C2.83335 0.136289 3.46463 -0.00939821 4.10198 0.000486658C4.16822 0.000486658 4.2462 0.00139736 4.32334 0.00595197C4.95671 0.0233958 5.57834 0.195568 6.14208 0.509692C6.39523 0.652056 6.63242 0.825671 6.84894 1.0271C7.45647 1.56508 7.84766 2.33859 7.93984 3.18416C7.95665 3.33652 7.96505 3.48983 7.965 3.64328Z" fill="#FF7600"/>
</svg>
